HIERARCHY
ROOT Hips
{
 OFFSET 0.000000 0.000000 0.000000
 CHANNELS 6 Xposition Yposition Zposition Yrotation Xrotation Zrotation
 JOINT Chest
 {
  OFFSET 0.000000 10.224184 -1.136021
  CHANNELS 3 Yrotation Xrotation Zrotation
  JOINT Chest2
  {
   OFFSET 0.000000 11.333266 0.000000
   CHANNELS 3 Yrotation Xrotation Zrotation
   JOINT Chest3
   {
    OFFSET 0.000000 10.347983 -0.005192
    CHANNELS 3 Yrotation Xrotation Zrotation
    JOINT Chest4
    {
     OFFSET 0.000000 10.336430 -0.005197
     CHANNELS 3 Yrotation Xrotation Zrotation
     JOINT Neck
     {
      OFFSET 0.000000 14.463488 0.000000
      CHANNELS 3 Yrotation Xrotation Zrotation
      JOINT Head
      {
       OFFSET 0.000000 9.624711 0.011165
       CHANNELS 3 Yrotation Xrotation Zrotation
       End Site
       {
        OFFSET 0.000000 17.845869 0.001502
       }
      }
     }
     JOINT RightCollar
     {
      OFFSET -3.157643 8.110621 0.000000
      CHANNELS 3 Yrotation Xrotation Zrotation
      JOINT RightShoulder
      {
       OFFSET -14.841244 0.000000 0.000000
       CHANNELS 3 Yrotation Xrotation Zrotation
       JOINT RightElbow
       {
        OFFSET -31.724693 0.000000 0.000000
        CHANNELS 3 Yrotation Xrotation Zrotation
        JOINT RightWrist
        {
         OFFSET -25.942014 0.000000 0.000000
         CHANNELS 3 Yrotation Xrotation Zrotation
         End Site
         {
          OFFSET -19.392695 0.000000 0.000000
         }
        }
       }
      }
     }
     JOINT LeftCollar
     {
      OFFSET 3.157643 8.110621 0.000000
      CHANNELS 3 Yrotation Xrotation Zrotation
      JOINT LeftShoulder
      {
       OFFSET 14.841244 0.000000 0.000000
       CHANNELS 3 Yrotation Xrotation Zrotation
       JOINT LeftElbow
       {
        OFFSET 31.724693 0.000000 0.000000
        CHANNELS 3 Yrotation Xrotation Zrotation
        JOINT LeftWrist
        {
         OFFSET 25.942014 0.000000 0.000000
         CHANNELS 3 Yrotation Xrotation Zrotation
         End Site
         {
          OFFSET 19.392695 0.000000 0.000000
         }
        }
       }
      }
     }
    }
   }
  }
 }
 JOINT RightHip
 {
  OFFSET -8.427108 0.013854 -0.001539
  CHANNELS 3 Yrotation Xrotation Zrotation
  JOINT RightKnee
  {
   OFFSET 0.000000 -43.437391 -0.001227
   CHANNELS 3 Yrotation Xrotation Zrotation
   JOINT RightAnkle
   {
    OFFSET 0.000000 -42.439704 -0.002068
    CHANNELS 3 Yrotation Xrotation Zrotation
    JOINT RightToe
    {
     OFFSET 0.000000 -8.481460 19.371378
     CHANNELS 3 Yrotation Xrotation Zrotation
     End Site
     {
      OFFSET 0.000000 -1.743714 7.762478
     }
    }
   }
  }
 }
 JOINT LeftHip
 {
  OFFSET 8.427108 0.011561 -0.001285
  CHANNELS 3 Yrotation Xrotation Zrotation
  JOINT LeftKnee
  {
   OFFSET 0.000000 -43.437391 -0.001227
   CHANNELS 3 Yrotation Xrotation Zrotation
   JOINT LeftAnkle
   {
    OFFSET 0.000000 -42.439704 -0.002068
    CHANNELS 3 Yrotation Xrotation Zrotation
    JOINT LeftToe
    {
     OFFSET 0.000000 -8.481460 19.371378
     CHANNELS 3 Yrotation Xrotation Zrotation
     End Site
     {
      OFFSET 0.000000 -1.743714 7.762478
     }
    }
   }
  }
 }
}
MOTION
Frames: 8
Frame Time: 0.004167
310.765354 96.406085 0.688158 -169.401118 2.844862 -1.249440 0.808101 0.990689 1.151063 0.304700 -5.383802 0.512082 0.303309 0.436549 0.543014 0.268692 6.164218 0.409423 1.006330 15.942838 -0.102282 1.910607 -6.413047 -0.554941 -1.099545 3.078792 5.198277 -15.269446 -5.267361 69.841476 65.622086 1.889821 29.189284 13.023722 -1.183690 -2.186401 -1.383467 2.016410 -7.826863 13.424759 -1.363134 -74.605023 -57.886388 -13.467302 -33.999153 -18.124553 -4.856212 -0.263410 -2.864005 -4.512859 -1.809864 0.167891 7.921067 0.520379 1.334861 -4.567274 5.077922 -0.000000 -0.000000 -0.000000 2.898255 -1.714555 4.807015 0.130651 0.508166 -0.788390 -3.177731 -2.310514 -2.990349 -0.000000 0.000000 0.000000
310.764424 96.402821 0.680753 -169.397288 2.836904 -1.245577 0.814777 0.990172 1.143924 0.308008 -5.384030 0.508882 0.306603 0.436318 0.540150 0.270945 6.164048 0.407260 1.000826 15.894462 -0.103349 1.901373 -6.502941 -0.555734 -1.092116 3.074764 5.205705 -15.263557 -5.272800 69.836099 65.619499 1.891203 29.186975 13.037590 -1.183828 -2.195327 -1.376194 2.019371 -7.820214 13.428900 -1.350024 -74.602618 -57.879672 -13.470295 -33.996584 -18.129299 -4.858823 -0.273772 -2.850059 -4.502127 -1.827529 0.160238 7.929571 0.550739 1.322333 -4.589132 5.051556 -0.000000 -0.000000 -0.000000 2.898454 -1.698915 4.823695 0.133170 0.501426 -0.828533 -3.185916 -2.307602 -2.968691 -0.000000 0.000000 0.000000
310.763450 96.399507 0.673324 -169.393637 2.828939 -1.241666 0.821693 0.989587 1.136704 0.311428 -5.384289 0.505646 0.310007 0.436058 0.537261 0.273279 6.163856 0.405079 0.995131 15.845652 -0.104390 1.891773 -6.593644 -0.556407 -1.084643 3.070753 5.213158 -15.257674 -5.278183 69.830497 65.616637 1.892624 29.184398 13.051242 -1.184028 -2.204210 -1.368737 2.022313 -7.813601 13.433042 -1.336980 -74.600344 -57.873172 -13.473547 -33.994133 -18.134089 -4.861570 -0.284224 -2.834953 -4.491362 -1.845643 0.151889 7.938127 0.581762 1.309575 -4.611214 5.024785 -0.000000 0.000000 0.000000 2.898737 -1.683156 4.840594 0.135882 0.494566 -0.869287 -3.194228 -2.304674 -2.946675 -0.000000 0.000000 0.000000
310.762451 96.396164 0.665881 -169.390087 2.820970 -1.237728 0.828748 0.988963 1.129438 0.314911 -5.384565 0.502389 0.313475 0.435780 0.534357 0.275660 6.163651 0.402886 0.989321 15.796595 -0.105423 1.881951 -6.684808 -0.557016 -1.077146 3.066749 5.220626 -15.251792 -5.283532 69.824767 65.613619 1.894067 29.181669 13.064769 -1.184258 -2.213071 -1.361174 2.025241 -7.807009 13.437186 -1.323975 -74.598144 -57.866797 -13.476947 -33.991749 -18.138902 -4.864397 -0.294729 -2.819185 -4.480574 -1.864010 0.143148 7.946711 0.613167 1.296692 -4.633427 4.997785 -0.000000 -0.000000 -0.000000 2.899069 -1.667330 4.857617 0.138706 0.487640 -0.910392 -3.202612 -2.301736 -2.924453 0.000000 0.000000 0.000000
310.761445 96.392813 0.658435 -169.386563 2.813000 -1.233784 0.835838 0.988331 1.122161 0.318410 -5.384844 0.499127 0.316959 0.435498 0.531450 0.278052 6.163443 0.400691 0.983472 15.747477 -0.106462 1.872053 -6.776085 -0.557616 -1.069645 3.062744 5.228097 -15.245909 -5.288871 69.819003 65.610561 1.895517 29.178904 13.078263 -1.184488 -2.221930 -1.353585 2.028162 -7.800420 13.441332 -1.310982 -74.595956 -57.860452 -13.480383 -33.989381 -18.143717 -4.867247 -0.305248 -2.803254 -4.469776 -1.882437 0.134314 7.955300 0.644669 1.283786 -4.655677 4.970729 0.000000 -0.000000 -0.000000 2.899414 -1.651488 4.874673 0.141559 0.480702 -0.951584 -3.211012 -2.298792 -2.902181 0.000000 -0.000000 0.000000
310.760452 96.389478 0.650996 -169.382989 2.805031 -1.229854 0.842860 0.987721 1.114909 0.321878 -5.385114 0.495876 0.320412 0.435226 0.528551 0.280421 6.163242 0.398502 0.977660 15.698485 -0.107526 1.862223 -6.867126 -0.558262 -1.062160 3.058728 5.235560 -15.240023 -5.294221 69.813300 65.607579 1.896955 29.176216 13.091814 -1.184689 -2.230810 -1.346048 2.031083 -7.793817 13.445480 -1.297971 -74.593721 -57.854046 -13.483742 -33.986977 -18.148512 -4.870064 -0.315743 -2.787657 -4.458978 -1.900728 0.125689 7.963871 0.675985 1.270961 -4.677873 4.943794 0.000000 -0.000000 -0.000000 2.899736 -1.635681 4.891668 0.144358 0.473805 -0.992604 -3.219374 -2.295848 -2.880011 0.000000 -0.000000 -0.000000
310.759490 96.386178 0.643574 -169.379289 2.797068 -1.225959 0.849713 0.987163 1.107716 0.325267 -5.385362 0.492651 0.323787 0.434977 0.525671 0.282734 6.163058 0.396327 0.971961 15.649805 -0.108628 1.852608 -6.957584 -0.559008 -1.054711 3.054690 5.243002 -15.234132 -5.299608 69.807754 65.604790 1.898366 29.173722 13.105513 -1.184830 -2.239728 -1.338643 2.034010 -7.787183 13.449631 -1.284917 -74.591379 -57.847485 -13.486913 -33.984487 -18.153266 -4.872791 -0.326176 -2.772892 -4.448193 -1.918689 0.117574 7.972401 0.706831 1.258319 -4.699920 4.917155 -0.000000 -0.000000 -0.000000 2.900001 -1.619961 4.908508 0.147023 0.467001 -1.033188 -3.227641 -2.292909 -2.858098 0.000000 0.000000 0.000000
310.758580 96.382936 0.636178 -169.375388 2.789111 -1.222120 0.856293 0.986686 1.100617 0.328531 -5.385574 0.489470 0.327036 0.434763 0.522821 0.284954 6.162900 0.394175 0.966451 15.601625 -0.109785 1.843356 -7.047111 -0.559911 -1.047318 3.050622 5.250413 -15.228231 -5.305054 69.802459 65.602313 1.899731 29.171535 13.119452 -1.184880 -2.248708 -1.331449 2.036950 -7.780502 13.453785 -1.271789 -74.588870 -57.840678 -13.489784 -33.981858 -18.157958 -4.875370 -0.336508 -2.759456 -4.437433 -1.936127 0.110270 7.980867 0.736922 1.245964 -4.721724 4.890987 -0.000000 0.000000 -0.000000 2.900172 -1.604379 4.925101 0.149470 0.460344 -1.073076 -3.235759 -2.289981 -2.836595 -0.000000 0.000000 0.000000
